:FULLY-SPECIFIED
:FORCE-ALL-JOINTS-BE-3DOF
:DEGREES
291
root 10.0029 16.7835 3.94245 6.23023 1.5664 3.09446
lfemur -3.42661 4.74929 -28.1752
ltibia 18.4525 0 0
lfoot -17.0761 3.50291 0
ltoes 0.162761 0 0
rfemur -34.9908 3.57401 12.5773
rtibia 46.8113 0 0
rfoot -23.6381 -14.3626 0
rtoes -17.8986 0 0
lowerback -6.13272 -3.24553 -4.29433
upperback -0.430663 -4.06532 2.07328
thorax 3.47809 -2.1095 4.13969
lowerneck -20.8817 -4.18506 -11.9038
upperneck 21.9221 -5.08027 11.74
head 11.1899 -1.89727 5.53617
lclavicle -5.68452e-014 1.816e-014 0
lhumerus -16.0801 -23.4206 88.3606
lradius 29.7806 0 0
lwrist 6.16017 0 0
lhand -12.7811 -23.1546 0
lfingers 7.12502 0 0
lthumb 13.3036 6.3921 0
rclavicle -5.68452e-014 1.816e-014 0
rhumerus -46.9636 6.53013 -82.5135
rradius 38.4655 0 0
rwrist -20.7456 0 0
rhand -28.0204 -23.2116 0
rfingers 7.12502 0 0
rthumb -1.40555 -53.1832 0
292
root 10.0014 16.7778 4.08622 6.30506 1.89051 3.18339
lfemur -2.47042 4.67677 -28.1364
ltibia 17.5299 0 0
lfoot -16.9324 3.3043 0
ltoes 0.162655 0 0
rfemur -35.4143 4.05343 12.0893
rtibia 45.6877 0 0
rfoot -23.9291 -14.5529 0
rtoes -18.0686 0 0
lowerback -6.24066 -3.32657 -4.41423
upperback -0.447525 -4.15929 2.06437
thorax 3.54045 -2.15906 4.18096
lowerneck -20.7989 -4.23143 -11.9418
upperneck 21.9144 -5.14896 11.7624
head 11.183 -1.93147 5.53966
lclavicle -5.8611e-014 1.83652e-014 0
lhumerus -15.9351 -24.1846 88.5366
lradius 30.2482 0 0
lwrist 6.68167 0 0
lhand -12.6558 -23.0661 0
lfingers 7.12502 0 0
lthumb 13.4244 6.4723 0
rclavicle -5.8611e-014 1.83652e-014 0
rhumerus -47.0746 6.43985 -82.499
rradius 38.1458 0 0
rwrist -20.5598 0 0
rhand -27.9355 -23.3474 0
rfingers 7.12502 0 0
rthumb -1.32355 -53.3195 0
293
root 9.99997 16.7721 4.22999 6.3799 2.21462 3.27233
lfemur -1.51423 4.60424 -28.0977
ltibia 16.6073 0 0
lfoot -16.7887 3.10568 0
ltoes 0.162549 0 0
rfemur -35.8377 4.53285 11.6013
rtibia 44.5641 0 0
rfoot -24.2201 -14.7433 0
rtoes -18.2387 0 0
lowerback -6.34861 -3.4076 -4.53413
upperback -0.464387 -4.25325 2.05546
thorax 3.6028 -2.20861 4.22223
lowerneck -20.716 -4.2778 -11.9798
upperneck 21.9068 -5.21764 11.7847
head 11.1761 -1.96567 5.54316
lclavicle -6.03768e-014 1.85704e-014 0
lhumerus -15.79 -24.9485 88.7126
lradius 30.7157 0 0
lwrist 7.20317 0 0
lhand -12.5305 -22.9777 0
lfingers 7.12502 0 0
lthumb 13.5452 6.55249 0
rclavicle -6.03768e-014 1.85704e-014 0
rhumerus -47.1856 6.34957 -82.4845
rradius 37.826 0 0
rwrist -20.374 0 0
rhand -27.8506 -23.4833 0
rfingers 7.12502 0 0
rthumb -1.24154 -53.4558 0
294
root 9.9985 16.7663 4.37376 6.45473 2.53873 3.36127
lfemur -0.558035 4.53172 -28.0589
ltibia 15.6846 0 0
lfoot -16.645 2.90707 0
ltoes 0.162444 0 0
rfemur -36.2612 5.01227 11.1134
rtibia 43.4405 0 0
rfoot -24.5111 -14.9337 0
rtoes -18.4088 0 0
lowerback -6.45656 -3.48864 -4.65404
upperback -0.481249 -4.34721 2.04655
thorax 3.66515 -2.25816 4.2635
lowerneck -20.6332 -4.32418 -12.0177
upperneck 21.8991 -5.28633 11.8071
head 11.1691 -1.99987 5.54665
lclavicle -6.21426e-014 1.87756e-014 0
lhumerus -15.645 -25.7125 88.8887
lradius 31.1832 0 0
lwrist 7.72467 0 0
lhand -12.4051 -22.8892 0
lfingers 7.12502 0 0
lthumb 13.666 6.63268 0
rclavicle -6.21426e-014 1.87756e-014 0
rhumerus -47.2965 6.2593 -82.47
rradius 37.5063 0 0
rwrist -20.1882 0 0
rhand -27.7657 -23.6192 0
rfingers 7.12502 0 0
rthumb -1.15953 -53.5921 0
295
root 9.99703 16.7606 4.51753 6.52957 2.86284 3.45021
lfemur 0.398155 4.45919 -28.0202
ltibia 14.762 0 0
lfoot -16.5013 2.70845 0
ltoes 0.162338 0 0
rfemur -36.6846 5.49169 10.6254
rtibia 42.3169 0 0
rfoot -24.8021 -15.1241 0
rtoes -18.5789 0 0
lowerback -6.5645 -3.56967 -4.77394
upperback -0.498111 -4.44117 2.03764
thorax 3.72751 -2.30771 4.30477
lowerneck -20.5504 -4.37055 -12.0557
upperneck 21.8914 -5.35501 11.8295
head 11.1622 -2.03407 5.55015
lclavicle -6.39084e-014 1.89808e-014 0
lhumerus -15.4999 -26.4764 89.0647
lradius 31.6507 0 0
lwrist 8.24617 0 0
lhand -12.2798 -22.8008 0
lfingers 7.12502 0 0
lthumb 13.7868 6.71288 0
rclavicle -6.39084e-014 1.89808e-014 0
rhumerus -47.4075 6.16902 -82.4555
rradius 37.1865 0 0
rwrist -20.0024 0 0
rhand -27.6808 -23.7551 0
rfingers 7.12502 0 0
rthumb -1.07753 -53.7284 0
296
root 9.99556 16.7549 4.66131 6.6044 3.18695 3.53915
lfemur 1.35435 4.38667 -27.9814
ltibia 13.8394 0 0
lfoot -16.3575 2.50984 0
ltoes 0.162232 0 0
rfemur -37.1081 5.9711 10.1374
rtibia 41.1933 0 0
rfoot -25.0931 -15.3145 0
rtoes -18.749 0 0
lowerback -6.67245 -3.65071 -4.89385
upperback -0.514973 -4.53513 2.02873
thorax 3.78986 -2.35726 4.34605
lowerneck -20.4675 -4.41693 -12.0937
upperneck 21.8838 -5.4237 11.8518
head 11.1552 -2.06828 5.55364
lclavicle -6.56743e-014 1.91859e-014 0
lhumerus -15.3549 -27.2404 89.2407
lradius 32.1182 0 0
lwrist 8.76768 0 0
lhand -12.1544 -22.7123 0
lfingers 7.12502 0 0
lthumb 13.9076 6.79307 0
rclavicle -6.56743e-014 1.91859e-014 0
rhumerus -47.5184 6.07874 -82.441
rradius 36.8668 0 0
rwrist -19.8166 0 0
rhand -27.5958 -23.891 0
rfingers 7.12502 0 0
rthumb -0.995519 -53.8646 0
297
root 9.99409 16.7492 4.80508 6.67924 3.51106 3.62809
lfemur 2.31054 4.31414 -27.9427
ltibia 12.9168 0 0
lfoot -16.2138 2.31122 0
ltoes 0.162126 0 0
rfemur -37.5315 6.45052 9.64943
rtibia 40.0697 0 0
rfoot -25.3841 -15.5049 0
rtoes -18.9191 0 0
lowerback -6.78039 -3.73174 -5.01375
upperback -0.531835 -4.62909 2.01982
thorax 3.85222 -2.40681 4.38732
lowerneck -20.3847 -4.4633 -12.1317
upperneck 21.8761 -5.49238 11.8742
head 11.1483 -2.10248 5.55714
lclavicle -6.74401e-014 1.93911e-014 0
lhumerus -15.2098 -28.0043 89.4167
lradius 32.5857 0 0
lwrist 9.28918 0 0
lhand -12.0291 -22.6239 0
lfingers 7.12502 0 0
lthumb 14.0284 6.87327 0
rclavicle -6.74401e-014 1.93911e-014 0
rhumerus -47.6294 5.98846 -82.4265
rradius 36.547 0 0
rwrist -19.6308 0 0
rhand -27.5109 -24.0269 0
rfingers 7.12502 0 0
rthumb -0.913512 -54.0009 0
298
root 9.99262 16.7434 4.94885 6.75407 3.83517 3.71703
lfemur 3.26673 4.24162 -27.9039
ltibia 11.9941 0 0
lfoot -16.0701 2.11261 0
ltoes 0.162021 0 0
rfemur -37.955 6.92994 9.16145
rtibia 38.9461 0 0
rfoot -25.6751 -15.6953 0
rtoes -19.0892 0 0
lowerback -6.88834 -3.81278 -5.13366
upperback -0.548697 -4.72305 2.01091
thorax 3.91457 -2.45636 4.42859
lowerneck -20.3019 -4.50968 -12.1696
upperneck 21.8684 -5.56107 11.8966
head 11.1413 -2.13668 5.56063
lclavicle -6.92059e-014 1.95963e-014 0
lhumerus -15.0648 -28.7683 89.5928
lradius 33.0532 0 0
lwrist 9.81068 0 0
lhand -11.9037 -22.5354 0
lfingers 7.12502 0 0
lthumb 14.1492 6.95346 0
rclavicle -6.92059e-014 1.95963e-014 0
rhumerus -47.7403 5.89819 -82.412
rradius 36.2273 0 0
rwrist -19.445 0 0
rhand -27.426 -24.1628 0
rfingers 7.12502 0 0
rthumb -0.831505 -54.1372 0
299
root 9.99115 16.7377 5.09262 6.82891 4.15928 3.80597
lfemur 4.22292 4.16909 -27.8652
ltibia 11.0715 0 0
lfoot -15.9264 1.91399 0
ltoes 0.161915 0 0
rfemur -38.3784 7.40936 8.67348
rtibia 37.8225 0 0
rfoot -25.9661 -15.8857 0
rtoes -19.2593 0 0
lowerback -6.99629 -3.89381 -5.25356
upperback -0.565559 -4.81701 2.002
thorax 3.97692 -2.50591 4.46986
lowerneck -20.219 -4.55605 -12.2076
upperneck 21.8608 -5.62975 11.9189
head 11.1344 -2.17088 5.56413
lclavicle -7.09717e-014 1.98015e-014 0
lhumerus -14.9197 -29.5322 89.7688
lradius 33.5207 0 0
lwrist 10.3322 0 0
lhand -11.7784 -22.447 0
lfingers 7.12502 0 0
lthumb 14.27 7.03365 0
rclavicle -7.09717e-014 1.98015e-014 0
rhumerus -47.8513 5.80791 -82.3975
rradius 35.9075 0 0
rwrist -19.2592 0 0
rhand -27.3411 -24.2987 0
rfingers 7.12502 0 0
rthumb -0.749498 -54.2735 0
300
root 9.98967 16.732 5.23639 6.90374 4.48339 3.8949
lfemur 5.17911 4.09657 -27.8264
ltibia 10.1489 0 0
lfoot -15.7827 1.71538 0
ltoes 0.161809 0 0
rfemur -38.8019 7.88878 8.1855
rtibia 36.6989 0 0
rfoot -26.2571 -16.076 0
rtoes -19.4293 0 0
lowerback -7.10423 -3.97485 -5.37346
upperback -0.582421 -4.91098 1.99309
thorax 4.03928 -2.55547 4.51113
lowerneck -20.1362 -4.60242 -12.2456
upperneck 21.8531 -5.69844 11.9413
head 11.1275 -2.20508 5.56762
lclavicle -7.27375e-014 2.00067e-014 0
lhumerus -14.7747 -30.2962 89.9448
lradius 33.9883 0 0
lwrist 10.8537 0 0
lhand -11.6531 -22.3585 0
lfingers 7.12502 0 0
lthumb 14.3908 7.11385 0
rclavicle -7.27375e-014 2.00067e-014 0
rhumerus -47.9623 5.71763 -82.383
rradius 35.5878 0 0
rwrist -19.0734 0 0
rhand -27.2562 -24.4345 0
rfingers 7.12502 0 0
rthumb -0.667491 -54.4098 0
301
root 9.9882 16.7262 5.38016 6.97858 4.8075 3.98384
lfemur 6.1353 4.02405 -27.7877
ltibia 9.22626 0 0
lfoot -15.639 1.51676 0
ltoes 0.161703 0 0
rfemur -39.2253 8.3682 7.69753
rtibia 35.5753 0 0
rfoot -26.5481 -16.2664 0
rtoes -19.5994 0 0
lowerback -7.21218 -4.05589 -5.49337
upperback -0.599283 -5.00494 1.98418
thorax 4.10163 -2.60502 4.5524
lowerneck -20.0534 -4.6488 -12.2835
upperneck 21.8454 -5.76713 11.9637
head 11.1205 -2.23928 5.57112
lclavicle -7.45033e-014 2.02119e-014 0
lhumerus -14.6296 -31.0601 90.1209
lradius 34.4558 0 0
lwrist 11.3752 0 0
lhand -11.5277 -22.2701 0
lfingers 7.12502 0 0
lthumb 14.5116 7.19404 0
rclavicle -7.45033e-014 2.02119e-014 0
rhumerus -48.0732 5.62736 -82.3685
rradius 35.268 0 0
rwrist -18.8876 0 0
rhand -27.1713 -24.5704 0
rfingers 7.12502 0 0
rthumb -0.585484 -54.5461 0
302
root 9.98673 16.7205 5.52393 7.05341 5.13161 4.07278
lfemur 7.09149 3.95152 -27.7489
ltibia 8.30363 0 0
lfoot -15.4952 1.31815 0
ltoes 0.161598 0 0
rfemur -39.6488 8.84762 7.20955
rtibia 34.4517 0 0
rfoot -26.8391 -16.4568 0
rtoes -19.7695 0 0
lowerback -7.32012 -4.13692 -5.61327
upperback -0.616145 -5.0989 1.97527
thorax 4.16399 -2.65457 4.59368
lowerneck -19.9705 -4.69517 -12.3215
upperneck 21.8378 -5.83581 11.9861
head 11.1136 -2.27348 5.57461
lclavicle -7.62692e-014 2.04171e-014 0
lhumerus -14.4846 -31.8241 90.2969
lradius 34.9233 0 0
lwrist 11.8967 0 0
lhand -11.4024 -22.1816 0
lfingers 7.12502 0 0
lthumb 14.6324 7.27424 0
rclavicle -7.62692e-014 2.04171e-014 0
rhumerus -48.1842 5.53708 -82.354
rradius 34.9483 0 0
rwrist -18.7018 0 0
rhand -27.0864 -24.7063 0
rfingers 7.12502 0 0
rthumb -0.503477 -54.6823 0
303
root 9.98526 16.7148 5.6677 7.12825 5.45572 4.16172
lfemur 8.04768 3.879 -27.7102
ltibia 7.38101 0 0
lfoot -15.3515 1.11953 0
ltoes 0.161492 0 0
rfemur -40.0722 9.32704 6.72158
rtibia 33.3281 0 0
rfoot -27.1301 -16.6472 0
rtoes -19.9396 0 0
lowerback -7.42807 -4.21796 -5.73318
upperback -0.633007 -5.19286 1.96636
thorax 4.22634 -2.70412 4.63495
lowerneck -19.8877 -4.74155 -12.3595
upperneck 21.8301 -5.9045 12.0084
head 11.1066 -2.30768 5.57811
lclavicle -7.8035e-014 2.06223e-014 0
lhumerus -14.3395 -32.588 90.4729
lradius 35.3908 0 0
lwrist 12.4182 0 0
lhand -11.277 -22.0932 0
lfingers 7.12502 0 0
lthumb 14.7532 7.35443 0
rclavicle -7.8035e-014 2.06223e-014 0
rhumerus -48.2951 5.4468 -82.3395
rradius 34.6285 0 0
rwrist -18.516 0 0
rhand -27.0015 -24.8422 0
rfingers 7.12502 0 0
rthumb -0.42147 -54.8186 0
304
root 9.98379 16.709 5.81147 7.20308 5.77982 4.25066
lfemur 9.00387 3.80647 -27.6714
ltibia 6.45838 0 0
lfoot -15.2078 0.920918 0
ltoes 0.161386 0 0
rfemur -40.4957 9.80646 6.2336
rtibia 32.2045 0 0
rfoot -27.4211 -16.8376 0
rtoes -20.1097 0 0
lowerback -7.53602 -4.29899 -5.85308
upperback -0.64987 -5.28682 1.95746
thorax 4.28869 -2.75367 4.67622
lowerneck -19.8048 -4.78792 -12.3974
upperneck 21.8225 -5.97318 12.0308
head 11.0997 -2.34188 5.5816
lclavicle -7.98008e-014 2.08275e-014 0
lhumerus -14.1945 -33.352 90.649
lradius 35.8583 0 0
lwrist 12.9397 0 0
lhand -11.1517 -22.0047 0
lfingers 7.12502 0 0
lthumb 14.8739 7.43462 0
rclavicle -7.98008e-014 2.08275e-014 0
rhumerus -48.4061 5.35653 -82.3249
rradius 34.3088 0 0
rwrist -18.3302 0 0
rhand -26.9166 -24.9781 0
rfingers 7.12502 0 0
rthumb -0.339464 -54.9549 0
